<svg xmlns="http://www.w3.org/2000/svg" viewBox="0 10.90999984741211 99.44000244140625 40.119998931884766" data-asc="1.0087890625" width="99.44000244140625" height="40.119998931884766"><defs/><g fill="#fdd6af"><g transform="translate(0, 0)"><path d="M0 10.91L7.69 10.91Q15.14 10.91 17.76 11.60Q20.39 12.28 21.75 13.84Q23.12 15.41 23.46 17.32Q23.80 19.24 23.80 24.85L23.80 38.70Q23.80 44.02 23.30 45.81Q22.80 47.61 21.56 48.62Q20.31 49.63 18.48 50.04Q16.65 50.44 12.96 50.44L0 50.44L0 10.91M10.28 17.68L10.28 43.68Q12.50 43.68 13.01 42.79Q13.53 41.89 13.53 37.94L13.53 22.58Q13.53 19.90 13.35 19.14Q13.18 18.38 12.57 18.03Q11.96 17.68 10.28 17.68ZM49.93 18.04L49.93 50.44L39.89 50.44L40.06 47.75Q39.04 49.39 37.54 50.21Q36.04 51.03 34.08 51.03Q31.86 51.03 30.40 50.24Q28.93 49.46 28.23 48.17Q27.54 46.88 27.37 45.47Q27.20 44.07 27.20 39.89L27.20 18.04L37.06 18.04L37.06 40.09Q37.06 43.87 37.29 44.58Q37.52 45.29 38.55 45.29Q39.65 45.29 39.86 44.56Q40.06 43.82 40.06 39.84L40.06 18.04L49.93 18.04ZM73.61 28.39L64.87 28.39L64.87 26.64Q64.87 24.39 64.61 23.79Q64.36 23.19 63.33 23.19Q62.50 23.19 62.08 23.74Q61.67 24.29 61.67 25.39Q61.67 26.88 61.88 27.58Q62.08 28.27 63.12 29.10Q64.16 29.93 67.38 31.52Q71.68 33.62 73.02 35.47Q74.37 37.33 74.37 40.87Q74.37 44.82 73.34 46.84Q72.31 48.85 69.91 49.94Q67.50 51.03 64.11 51.03Q60.35 51.03 57.68 49.85Q55.00 48.68 54.00 46.68Q53.00 44.68 53.00 40.63L53.00 39.06L61.74 39.06L61.74 41.11Q61.74 43.73 62.07 44.51Q62.40 45.29 63.38 45.29Q64.43 45.29 64.84 44.76Q65.26 44.24 65.26 42.55Q65.26 40.23 64.72 39.65Q64.16 39.06 58.98 36.18Q54.64 33.74 53.69 31.75Q52.73 29.76 52.73 27.03Q52.73 23.14 53.76 21.30Q54.79 19.46 57.24 18.46Q59.69 17.46 62.94 17.46Q66.16 17.46 68.42 18.27Q70.68 19.09 71.89 20.43Q73.10 21.78 73.35 22.92Q73.61 24.07 73.61 26.51L73.61 28.39ZM98.24 18.04L94.24 30.96L99.44 50.44L89.94 50.44L86.87 36.33L86.87 50.44L77.00 50.44L77.00 10.91L86.87 10.91L86.87 27.51L89.94 18.04L98.24 18.04Z"/></g></g></svg>