<svg xmlns="http://www.w3.org/2000/svg" viewBox="0 10.90999984741211 100.66000366210938 40.119998931884766" data-asc="1.0087890625" width="100.66000366210938" height="40.119998931884766"><defs/><g fill="#fdd6af"><g transform="translate(0, 0)"><path d="M22.95 10.91L22.95 50.44L13.94 50.44L8.59 32.47L8.59 50.44L0 50.44L0 10.91L8.59 10.91L14.36 28.71L14.36 10.91L22.95 10.91ZM49.10 29.42L49.10 37.35Q49.10 41.72 48.66 43.76Q48.22 45.80 46.78 47.57Q45.34 49.34 43.08 50.18Q40.82 51.03 37.89 51.03Q34.62 51.03 32.35 50.31Q30.08 49.58 28.82 48.13Q27.56 46.68 27.03 44.62Q26.49 42.55 26.49 38.43L26.49 30.13Q26.49 25.61 27.47 23.07Q28.44 20.53 30.98 18.99Q33.52 17.46 37.48 17.46Q40.80 17.46 43.18 18.44Q45.56 19.43 46.85 21.02Q48.14 22.61 48.62 24.29Q49.10 25.98 49.10 29.42M39.23 26.98Q39.23 24.49 38.96 23.84Q38.70 23.19 37.82 23.19Q36.94 23.19 36.65 23.84Q36.35 24.49 36.35 26.98L36.35 41.60Q36.35 43.90 36.65 44.59Q36.94 45.29 37.79 45.29Q38.67 45.29 38.95 44.65Q39.23 44.02 39.23 41.92L39.23 26.98ZM74.66 29.42L74.66 37.35Q74.66 41.72 74.22 43.76Q73.78 45.80 72.34 47.57Q70.90 49.34 68.64 50.18Q66.38 51.03 63.45 51.03Q60.18 51.03 57.91 50.31Q55.64 49.58 54.38 48.13Q53.13 46.68 52.59 44.62Q52.05 42.55 52.05 38.43L52.05 30.13Q52.05 25.61 53.03 23.07Q54.00 20.53 56.54 18.99Q59.08 17.46 63.04 17.46Q66.36 17.46 68.74 18.44Q71.12 19.43 72.41 21.02Q73.71 22.61 74.18 24.29Q74.66 25.98 74.66 29.42M64.79 26.98Q64.79 24.49 64.53 23.84Q64.26 23.19 63.38 23.19Q62.50 23.19 62.21 23.84Q61.91 24.49 61.91 26.98L61.91 41.60Q61.91 43.90 62.21 44.59Q62.50 45.29 63.35 45.29Q64.23 45.29 64.51 44.65Q64.79 44.02 64.79 41.92L64.79 26.98ZM87.94 18.04L87.77 21.02Q88.84 19.24 90.39 18.35Q91.94 17.46 93.97 17.46Q96.51 17.46 98.12 18.65Q99.73 19.85 100.20 21.67Q100.66 23.49 100.66 27.73L100.66 50.44L90.80 50.44L90.80 28.00Q90.80 24.66 90.58 23.93Q90.36 23.19 89.36 23.19Q88.31 23.19 88.04 24.04Q87.77 24.88 87.77 28.54L87.77 50.44L77.91 50.44L77.91 18.04L87.94 18.04Z"/></g></g></svg>